<?xml version="1.0" encoding="utf-8"?>
<!-- Generator: Adobe Illustrator 24.2.1, SVG Export Plug-In . SVG Version: 6.00 Build 0)  -->
<svg version="1.1" id="Capa_1" xmlns="http://www.w3.org/2000/svg" xmlns:xlink="http://www.w3.org/1999/xlink" x="0px" y="0px"
	 viewBox="0 0 512.1 512.1" style="enable-background:new 0 0 512.1 512.1;" xml:space="preserve">
<path id="XMLID_10_" d="M256,512.6c-141.2,0-256-114.9-256-256c0-141.2,114.9-256,256-256c141.2,0,256,114.9,256,256
	C512.1,397.7,397.2,512.6,256,512.6z M256,22.8c-128.8,0-233.7,104.8-233.7,233.7c0,128.8,104.8,233.7,233.7,233.7
	c128.8,0,233.7-104.8,233.7-233.7C489.7,127.7,384.9,22.8,256,22.8z"/>
<path id="XMLID_9_" d="M256,290.3c-6.2,0-11.2-5-11.2-11.2V128.2c0-6.2,5-11.2,11.2-11.2c6.2,0,11.2,5,11.2,11.2v150.9
	C267.2,285.3,262.2,290.3,256,290.3z"/>
<path id="XMLID_8_" d="M328.4,214.8H179.7c-6.2,0-11.2-5-11.2-11.2c0-6.2,5-11.2,11.2-11.2h148.7c6.2,0,11.2,5,11.2,11.2
	C339.6,209.8,334.6,214.8,328.4,214.8z"/>
<path id="XMLID_7_" d="M330.4,362.5H181.7c-6.2,0-11.2-5-11.2-11.2c0-6.2,5-11.2,11.2-11.2h148.7c6.2,0,11.2,5,11.2,11.2
	C341.6,357.5,336.6,362.5,330.4,362.5z"/>
</svg>
