<?xml version="1.0" encoding="utf-8"?>
<!-- Generator: Adobe Illustrator 24.2.1, SVG Export Plug-In . SVG Version: 6.00 Build 0)  -->
<svg version="1.1" id="Capa_1" xmlns="http://www.w3.org/2000/svg" xmlns:xlink="http://www.w3.org/1999/xlink" x="0px" y="0px"
	 viewBox="0 0 512.1 512.1" style="enable-background:new 0 0 512.1 512.1;" xml:space="preserve">
<path id="XMLID_37_" d="M303.5,512.1c-115,0-208.5-93.5-208.5-208.5S188.5,95,303.5,95S512,188.6,512,303.6S418.4,512.1,303.5,512.1
	z M303.5,118.6c-102,0-185,83-185,185s83,185,185,185s185-83,185-185S405.5,118.6,303.5,118.6z"/>
<path id="XMLID_30_" d="M78.8,157.7C35.4,157.7,0,122.3,0,78.8S35.4,0,78.8,0s78.8,35.4,78.8,78.8S122.3,157.7,78.8,157.7z
	 M78.8,22.8c-30.9,0-56.1,25.2-56.1,56.1c0,30.9,25.2,56.1,56.1,56.1s56.1-25.2,56.1-56.1C134.9,47.9,109.8,22.8,78.8,22.8z"/>
<path id="XMLID_28_" d="M124.1,400.9c-4.6,0-8.9-2.8-10.6-7.4L6.8,110.8c-2.2-5.9,0.7-12.4,6.6-14.7c5.9-2.2,12.4,0.7,14.7,6.6
	l106.7,282.7c2.2,5.9-0.7,12.4-6.6,14.7C126.8,400.7,125.4,400.9,124.1,400.9z"/>
<path id="XMLID_26_" d="M366.2,127c-1.2,0-2.4-0.2-3.6-0.7L104.8,27.5c-5.1-2-7.7-7.7-5.7-12.9c2-5.1,7.7-7.7,12.9-5.7l257.9,98.9
	c5.1,2,7.7,7.7,5.7,12.9C374,124.6,370.3,127,366.2,127z"/>
</svg>
