<svg id="Capa_1" enable-background="new 0 0 512 512" height="512" viewBox="0 0 512 512" width="512" xmlns="http://www.w3.org/2000/svg"><g><g><path d="m341.212 164.499c-.367-6.219-3.16-12.187-7.557-16.577l-40.431-39.749v-9.996h.793c5.523 0 10-4.478 10-10v-30.977c0-14.759-12.007-26.766-26.766-26.766h-42.501c-14.758 0-26.765 12.007-26.765 26.766v30.977c0 5.522 4.477 10 10 10h.802v9.996l-40.487 39.804c-4.74 4.734-7.615 11.374-7.552 18.1v83.422c0 5.78-.001 15.435 8.089 23.208 2.31 2.378 1.773 5.811-.067 7.649-.025.025-.049.05-.074.075-4.762 4.864-7.385 11.232-7.385 17.932v25.175c0 6.709 2.727 13.271 7.464 17.987 2.107 2.107 2.12 5.528.041 7.657-.018.018-.035.034-.052.052-4.806 4.807-7.453 11.198-7.453 17.995v76.271c0 20.504 15.8 37.211 35.98 38.034.525.021 1.053.032 1.582.032h94.828c.53 0 1.057-.012 1.592-.033 19.854-.813 35.407-17.26 35.407-37.443v-76.86c0-6.797-2.647-13.188-7.453-17.995-.017-.018-.035-.034-.052-.052-2.08-2.129-2.066-5.55.024-7.641 4.754-4.732 7.481-11.295 7.481-18.004v-25.175c0-6.699-2.623-13.067-7.385-17.932-.025-.025-.049-.05-.074-.075-1.84-1.84-2.376-5.272-.066-7.65 5.105-4.905 7.976-11.46 8.087-18.479.001-.053.001-.105.001-.158v-87.903c.004-.557-.018-1.113-.051-1.667zm-150.462 82.697v-78.337h130.507v78.337zm37.234-189.996c0-3.73 3.035-6.766 6.765-6.766h42.501c3.73 0 6.766 3.035 6.766 6.766v20.977h-56.032zm7.813 62.296c1.912-1.88 2.989-4.449 2.989-7.131v-14.188h34.438v14.188c0 2.682 1.077 5.251 2.989 7.131l29.868 29.363h-100.152zm84.902 204.041c0 1.428-.58 2.823-1.608 3.847-9.918 9.92-9.916 26.063.006 35.985.018.019.036.036.053.054 1 1.023 1.549 2.373 1.549 3.806v76.86c0 9.262-7.278 17.094-16.214 17.46-.26.011-.521.017-.784.017h-94.828c-.263 0-.526-.006-.776-.017-9.255-.377-16.786-8.475-16.786-18.05v-76.271c0-1.433.549-2.781 1.548-3.806.018-.018.036-.035.054-.054 9.922-9.922 9.924-26.065-.011-36.002-1.011-1.007-1.591-2.402-1.591-3.83v-25.175c0-1.822.893-3.131 1.652-3.915 7.327-7.368 9.204-18.137 5.641-27.251h114.802c-3.563 9.114-1.686 19.883 5.641 27.251.76.784 1.652 2.093 1.652 3.915z"/><path d="m446.097 87.722 4.951-4.777c12.304-11.871 3.598-33.325-13.456-33.325h-57.148c-10.686 0-19.379 8.693-19.379 19.379v55.144c0 16.725 20.769 25.589 32.836 13.946l7.429-7.169c31.414 35.492 48.6 80.663 48.6 128.267 0 52.133-20.482 101.095-57.673 137.865-4.585 4.533-7.12 10.569-7.139 16.996-.018 6.381 2.457 12.38 6.969 16.893l10.232 10.231c4.635 4.635 10.74 6.953 16.852 6.953 6.083-.001 12.173-2.298 16.823-6.896 49.012-48.464 76.006-113.116 76.006-182.043 0-63.844-23.33-124.343-65.903-171.464zm-24.167 339.285c-1.523 1.506-3.977 1.516-5.471.021l-10.231-10.231c-.922-.922-1.113-1.974-1.111-2.693.002-.615.16-1.802 1.2-2.83 41.021-40.558 63.611-94.57 63.611-152.088 0-56.115-21.641-109.162-60.94-149.39-3.766-3.998-10.271-4.148-14.221-.338l-13.703 13.223v-53.062h54.991l-10.943 10.56c-3.933 3.796-4.032 10.269-.212 14.181 43.27 44.332 67.1 102.869 67.1 164.826 0 63.543-24.885 123.143-70.07 167.821z"/><path d="m117.338 69.966c-8.989-8.989-23.423-9.355-32.86-.831-26.325 23.779-47.08 52.147-61.688 84.317-15.123 33.304-22.79 68.876-22.79 105.731 0 54.826 16.911 106.714 49.001 150.644l-7.868 7.591c-12.294 11.875-3.591 33.319 13.461 33.319h57.149c10.685 0 19.377-8.692 19.377-19.377v-55.143c0-16.724-20.769-25.591-32.835-13.946l-3.991 3.852c-12.958-19.483-22.15-40.872-27.37-63.729-1.23-5.384-6.59-8.752-11.976-7.522-5.384 1.229-8.752 6.591-7.522 11.976 6.691 29.3 19.288 56.405 37.439 80.563 3.55 4.727 10.682 5.296 14.938 1.189l11.316-10.92v53.058h-54.987l13.139-12.677c3.69-3.56 4.089-9.334.924-13.369-32.838-41.858-50.195-92.173-50.195-145.509 0-33.982 7.065-66.773 21-97.461 13.467-29.658 32.605-55.815 56.883-77.745 1.527-1.378 3.861-1.321 5.313.132l10.254 10.254c.954.954 1.13 2.041 1.11 2.785-.017.635-.213 1.852-1.336 2.858-33.644 30.197-56.525 69.333-66.169 113.178-1.187 5.395 2.225 10.729 7.618 11.915 5.396 1.188 10.729-2.225 11.915-7.618 8.739-39.731 29.485-75.207 59.996-102.591 4.888-4.388 7.793-10.659 7.969-17.204.177-6.597-2.295-12.8-6.961-17.466z"/><path d="m60.39 253.63c-2.989-4.567-9.361-5.746-13.87-2.76-4.546 3.01-5.76 9.338-2.76 13.859 3.009 4.536 9.347 5.795 13.87 2.771 4.528-3.028 5.782-9.341 2.76-13.87z"/></g></g></svg>