<?xml version="1.0"?>
<svg xmlns="http://www.w3.org/2000/svg" xmlns:xlink="http://www.w3.org/1999/xlink" xmlns:svgjs="http://svgjs.com/svgjs" version="1.1" width="512" height="512" x="0" y="0" viewBox="0 0 512.615 512.615" style="enable-background:new 0 0 512 512" xml:space="preserve" class=""><g><path xmlns="http://www.w3.org/2000/svg" d="m389.708 352.488c29.122 0 56.718-15.518 71.985-40.298 15.967-25.916 16.52-59.201 1.471-85.659-8.666-15.236-22.022-27.669-37.904-35.107 19-46.432 11.059-100.721-20.435-139.701-28.614-35.415-73.641-54.895-119.055-51.3-30.516 2.415-59.768 15.107-82.399 35.717-20.553 18.716-34.861 42.902-41.382 69.491-40.235-10.145-82.207 15.774-91.167 56.266-2.809 12.695-2.221 26.079 1.66 38.488-23.821 17.77-36.705 47.422-33.439 76.962 2.882 26.066 18.243 49.761 40.729 63.213 13.023 7.791 28.07 11.927 43.243 11.927h118.347v65.658h-71.887c-32.521 0-58.978 26.457-58.978 58.977v20.492c0 8.284 6.716 15 15 15h261.729c8.284 0 15-6.716 15-15v-20.492c0-32.52-26.457-58.977-58.977-58.977h-71.887v-65.658h118.346zm-17.482 124.634v5.492h-231.728v-5.492c0-15.978 12.999-28.977 28.978-28.977h173.774c15.977.001 28.976 13 28.976 28.977zm-249.21-154.634c-23.878 0-45.528-16.207-52.276-39.113-7.318-24.843 4.443-51.842 27.354-63.753 3.563-1.853 6.235-5.058 7.416-8.896 1.182-3.839.774-7.991-1.131-11.526-8.793-16.32-6.345-36.903 5.919-50.748 11.81-13.331 30.88-18.446 47.777-12.722-.213 9.806 5.594 19.255 16.694 17.96 4.464-.521 8.499-3.061 10.91-6.853 2.995-4.711 2.804-18.412 2.859-18.967 2.656-26.696 15.098-51.396 35.031-69.549 31.018-28.248 76.915-36.135 115.542-19.769 33.378 14.142 58.178 44.906 64.715 80.584 4.586 25.029.153 51.418-12.471 73.526-.331.579.315-.51 0 0-11.669 20.725-31.554 37.676-52.18 46.399-7.63 3.228-11.199 12.028-7.973 19.658 3.181 7.52 12.126 11.158 19.658 7.973 24.404-10.322 45.018-27.133 60.044-48.828 25.068 10.695 38.792 39.322 31.078 65.51-6.816 23.141-28.444 38.891-52.4 39.113h-118.219v-98.18l44.939-44.94c5.858-5.857 5.858-15.355 0-21.213-5.937-5.937-15.228-5.556-21.213 0l-23.727 23.727c0-13.211 0-26.422 0-39.634 0-8.39-3.267-16.612-12.68-18.076-9.598-1.493-17.106 6.164-17.32 15.39v115.654c-6.865-6.865-29.489-29.489-29.489-29.489-6.031-5.681-15.352-6.337-21.451-.238-5.858 5.857-5.858 15.355 0 21.213l50.94 50.94.001 24.846h-118.347z" fill="#ffffff" data-original="#000000" style="" class=""/></g></svg>
