<svg xmlns="http://www.w3.org/2000/svg" viewBox="0 0 512.1 512.05"><g id="Laag_2" data-name="Laag 2"><path d="M255.75.05a257.44,257.44,0,0,0-27.48,1.47,244,244,0,0,0-24.78,4c-1.57.33-3.15.68-4.73,1A256,256,0,0,0,72.45,77.25q-4.8,4.92-9.4,10.13C-29.94,194.14-18.78,356.06,88,449.05c102.2,89,256,83.1,351.1-13.52q4.82-4.92,9.4-10.13a255.87,255.87,0,0,0,63.62-169C512.1,114.81,397.33.05,255.75.05Zm-171.91,90C85.19,88.66,86.59,87.32,88,86c1.59-1.56,3.17-3.13,4.79-4.64,1.43-1.34,2.9-2.62,4.36-3.92,1.65-1.46,3.29-2.92,5-4.33,1.49-1.26,3-2.46,4.54-3.67,1.71-1.37,3.42-2.74,5.18-4.05,1.55-1.18,3.13-2.31,4.72-3.42,1.77-1.27,3.55-2.57,5.35-3.75,1.62-1.09,3.25-2.15,4.89-3.2,1.83-1.17,3.66-2.32,5.52-3.42q2.5-1.48,5-2.94,2.83-1.6,5.7-3.15,2.57-1.36,5.13-2.67c2-1,3.91-1.94,5.88-2.87,1.71-.81,3.49-1.62,5.25-2.39L165.38,35q2.64-1.09,5.31-2.12c2.07-.79,4.16-1.52,6.26-2.26,1.78-.62,3.57-1.25,5.38-1.84,2.13-.68,4.27-1.31,6.42-1.93,1.81-.53,3.59-1.06,5.41-1.55l2.07-.51a212.08,212.08,0,0,0-54.61,88.68A287.09,287.09,0,0,1,83.07,90.92C83.35,90.62,83.59,90.32,83.84,90.07ZM71.55,103.82a297.06,297.06,0,0,0,64.85,25.81,443.24,443.24,0,0,0-17.25,118.22H16.7A238.77,238.77,0,0,1,71.55,103.82Zm0,305.14a238.76,238.76,0,0,1-54.85-144H119.15A443.17,443.17,0,0,0,136.4,383.15,297.56,297.56,0,0,0,71.55,409ZM194.1,487.54c-1.72-.44-3.51-1-5.29-1.52-2.16-.64-4.33-1.27-6.46-2-1.81-.58-3.58-1.21-5.36-1.83-2.1-.73-4.21-1.47-6.28-2.26-1.78-.68-3.53-1.39-5.29-2.11-2-.85-4.09-1.7-6.11-2.56-1.74-.77-3.48-1.56-5.2-2.37-2-.94-4-1.9-6-2.89-1.7-.86-3.41-1.71-5.12-2.64q-2.9-1.56-5.76-3.19c-1.71-.95-3.33-1.92-5-2.91-1.88-1.13-3.73-2.29-5.57-3.48q-2.44-1.56-4.85-3.16c-1.82-1.23-3.62-2.52-5.41-3.8-1.56-1.12-3.13-2.24-4.66-3.42-1.77-1.33-3.51-2.7-5.23-4.09-1.52-1.2-3-2.4-4.5-3.64-1.71-1.42-3.36-2.9-5-4.36-1.46-1.3-2.92-2.57-4.34-3.88-1.63-1.53-3.21-3.11-4.8-4.67-1.37-1.36-2.78-2.7-4.13-4.09-.24-.27-.48-.54-.73-.8a286.89,286.89,0,0,1,58.55-22.54,212.08,212.08,0,0,0,54.61,88.68C195.5,487.87,194.8,487.73,194.1,487.54ZM247.21,495c-36.56-5.19-68.62-43.36-88.78-99.71a434.11,434.11,0,0,1,88.78-10.45V495Zm0-127.25A450.08,450.08,0,0,0,153.06,379a427.16,427.16,0,0,1-16.82-114h111V367.72Zm0-119.87h-111a427.23,427.23,0,0,1,16.82-114,450.08,450.08,0,0,0,94.15,11.23Zm0-119.88a434.11,434.11,0,0,1-88.78-10.45C178.59,61.17,210.65,23,247.21,17.81V128ZM440,103.82a238.77,238.77,0,0,1,54.85,144H392.36a443.24,443.24,0,0,0-17.25-118.22A297.56,297.56,0,0,0,440,103.82ZM317.34,25.24c1.79.44,3.58,1,5.36,1.53,2.16.63,4.33,1.26,6.46,1.95,1.81.58,3.58,1.21,5.36,1.83,2.1.73,4.21,1.47,6.28,2.27,1.78.67,3.53,1.38,5.29,2.1l6.11,2.56c1.74.77,3.48,1.56,5.2,2.38,2,.94,4,1.89,6,2.88,1.7.86,3.41,1.71,5.12,2.64q2.89,1.56,5.76,3.19c1.71,1,3.33,1.92,5,2.92,1.88,1.12,3.73,2.29,5.57,3.47q2.44,1.56,4.85,3.16c1.82,1.24,3.61,2.51,5.4,3.79,1.57,1.12,3.14,2.25,4.68,3.42,1.76,1.32,3.49,2.7,5.22,4.08,1.51,1.2,3,2.4,4.5,3.64,1.71,1.42,3.36,2.9,5,4.37,1.46,1.29,2.92,2.56,4.34,3.88,1.63,1.52,3.21,3.1,4.8,4.66,1.37,1.36,2.78,2.7,4.13,4.1.24.26.48.54.73.79a286.89,286.89,0,0,1-58.55,22.54,212,212,0,0,0-54.68-88.67C315.94,24.9,316.65,25.05,317.34,25.24Zm-53-7.43c36.56,5.2,68.61,43.36,88.78,99.71A434.11,434.11,0,0,1,264.3,128V17.81Zm0,127.25a450.08,450.08,0,0,0,94.15-11.23,427.23,427.23,0,0,1,16.82,114h-111Zm0,119.88h111a427.16,427.16,0,0,1-16.82,114h0a450.08,450.08,0,0,0-94.15-11.23Zm0,230V384.81a434.11,434.11,0,0,1,88.78,10.45C332.91,451.61,300.86,489.78,264.3,495Zm163.37-72.25c-1.35,1.39-2.74,2.73-4.12,4.09-1.59,1.56-3.18,3.14-4.81,4.66-1.42,1.33-2.88,2.57-4.33,3.89-1.66,1.47-3.31,2.94-5,4.36-1.5,1.25-3,2.45-4.54,3.67-1.71,1.36-3.42,2.73-5.18,4.05-1.55,1.17-3.13,2.3-4.72,3.41-1.77,1.27-3.55,2.57-5.35,3.75q-2.43,1.63-4.89,3.19-2.75,1.77-5.53,3.42c-1.71,1-3.34,2-5,2.94-1.89,1.08-3.8,2.13-5.71,3.15-1.71.91-3.42,1.81-5.13,2.68q-2.93,1.47-5.88,2.86c-1.71.81-3.49,1.62-5.25,2.39-2,.86-4,1.71-6.08,2.57-1.77.71-3.53,1.43-5.3,2.11-2.09.79-4.18,1.53-6.28,2.26-1.78.62-3.56,1.25-5.36,1.83-2.14.69-4.27,1.32-6.45,1.95-1.79.53-3.58,1.06-5.39,1.54l-2.07.51a212.08,212.08,0,0,0,54.61-88.68,287.67,287.67,0,0,1,58.55,22.53C428.16,422.16,427.92,422.46,427.67,422.72ZM440,409a297.56,297.56,0,0,0-64.85-25.81,443.17,443.17,0,0,0,17.25-118.21H494.81A238.74,238.74,0,0,1,440,409Z" transform="translate(0 -0.05)"/></g></svg>